<svg xmlns="http://www.w3.org/2000/svg" width="1400" height="2000" viewBox="0 0 1400 2000">
  <defs>
    <linearGradient id="bg" x1="0" y1="0" x2="0" y2="1">
      <stop offset="0%" stop-color="#1a1f2e"/>
      <stop offset="100%" stop-color="#090d17"/>
    </linearGradient>
    <linearGradient id="gold" x1="0" y1="0" x2="1" y2="1">
      <stop offset="0%" stop-color="#f3cc72"/>
      <stop offset="100%" stop-color="#b98924"/>
    </linearGradient>
  </defs>
  <rect width="1400" height="2000" fill="url(#bg)"/>
  <rect x="60" y="60" width="1280" height="1880" rx="24" fill="none" stroke="url(#gold)" stroke-width="5"/>

  <text x="700" y="220" text-anchor="middle" fill="#e8e2d6" font-family="Georgia, serif" font-size="104">ELDERBROOK</text>
  <text x="700" y="290" text-anchor="middle" fill="#d4a438" font-family="Georgia, serif" font-size="44">Chapter I: The Goblin Threat</text>

  <g transform="translate(200,420)">
    <rect x="0" y="0" width="1000" height="820" rx="16" fill="#111827" stroke="#d4a438" stroke-opacity="0.4"/>

    <path d="M160 670 L390 330 L540 650 Z" fill="#20314f"/>
    <path d="M470 680 L700 360 L860 680 Z" fill="#1a2740"/>

    <g transform="translate(130,190)">
      <ellipse cx="170" cy="490" rx="120" ry="45" fill="#000" opacity="0.25"/>
      <circle cx="170" cy="200" r="70" fill="#f0d8bc"/>
      <path d="M110 200 C118 152 145 120 170 120 C198 122 223 152 230 200" fill="#2f241d"/>
      <path d="M70 316 C78 248 114 230 170 230 C228 230 262 250 270 316 L270 450 L70 450 Z" fill="#36507c"/>
      <rect x="130" y="324" width="80" height="14" rx="5" fill="#eab94f"/>
      <rect x="245" y="310" width="26" height="250" fill="#8b6b2b"/>
      <polygon points="220,300 294,300 257,214" fill="#b7c7db"/>
    </g>

    <g transform="translate(625,260)">
      <ellipse cx="125" cy="430" rx="110" ry="40" fill="#000" opacity="0.3"/>
      <circle cx="130" cy="156" r="58" fill="#8eae5f"/>
      <rect x="76" y="208" width="110" height="150" rx="20" fill="#496433"/>
      <polygon points="38,250 76,260 76,325 36,340" fill="#384f27"/>
      <polygon points="186,260 226,250 226,340 186,325" fill="#384f27"/>
      <rect x="95" y="350" width="70" height="110" fill="#2f3e22"/>
      <rect x="8" y="276" width="34" height="170" fill="#65462a"/>
      <polygon points="0,264 52,264 26,198" fill="#d1d7de"/>
      <circle cx="112" cy="146" r="7" fill="#1f2a14"/>
      <circle cx="148" cy="146" r="7" fill="#1f2a14"/>
    </g>
  </g>

  <text x="700" y="1360" text-anchor="middle" fill="#d4a438" font-family="Georgia, serif" font-size="46">A Browser RPG Meets Dating Sim Atmosphere</text>
  <text x="700" y="1430" text-anchor="middle" fill="#e8e2d6" font-family="Georgia, serif" font-size="34">Build relationships in town. Hunt monsters beyond the gates.</text>

  <g transform="translate(170,1540)">
    <rect x="0" y="0" width="1060" height="280" rx="14" fill="#151d30" stroke="#d4a438" stroke-opacity="0.3"/>
    <text x="40" y="64" fill="#d4a438" font-family="Georgia, serif" font-size="40">Art Notes</text>
    <text x="40" y="118" fill="#e8e2d6" font-family="Georgia, serif" font-size="30">• Keep silhouettes bold, readable at low resolutions.</text>
    <text x="40" y="166" fill="#e8e2d6" font-family="Georgia, serif" font-size="30">• Push warm gold accents against cool navy environments.</text>
    <text x="40" y="214" fill="#e8e2d6" font-family="Georgia, serif" font-size="30">• Prioritize expressive portraits for social scenes.</text>
  </g>
</svg>
