<svg xmlns="http://www.w3.org/2000/svg" width="1920" height="1080" viewBox="0 0 1920 1080">
  <defs>
    <linearGradient id="sky" x1="0" y1="0" x2="0" y2="1">
      <stop offset="0%" stop-color="#1c2744"/>
      <stop offset="100%" stop-color="#0f1323"/>
    </linearGradient>
    <linearGradient id="mist" x1="0" y1="0" x2="1" y2="0">
      <stop offset="0%" stop-color="#d4a438" stop-opacity="0.06"/>
      <stop offset="100%" stop-color="#d4a438" stop-opacity="0.2"/>
    </linearGradient>
    <filter id="soft" x="-20%" y="-20%" width="140%" height="140%">
      <feGaussianBlur stdDeviation="8"/>
    </filter>
  </defs>

  <rect width="1920" height="1080" fill="url(#sky)"/>
  <rect x="0" y="700" width="1920" height="380" fill="#111729"/>

  <path d="M0,760 C220,700 430,690 650,740 C920,800 1130,770 1400,730 C1640,695 1780,710 1920,745 L1920,1080 L0,1080 Z" fill="#182038"/>
  <path d="M0,820 C260,770 480,760 760,815 C1020,870 1320,845 1600,795 C1760,770 1860,770 1920,785 L1920,1080 L0,1080 Z" fill="#0d1427"/>

  <circle cx="1480" cy="220" r="95" fill="#eab94f" opacity="0.18" filter="url(#soft)"/>
  <circle cx="1480" cy="220" r="46" fill="#f8db8f" opacity="0.45"/>

  <rect x="80" y="110" width="1760" height="580" rx="20" fill="url(#mist)" stroke="#d4a438" stroke-opacity="0.2"/>
  <text x="130" y="170" fill="#e8e2d6" font-size="44" font-family="Georgia, serif">Elderbrook — Quiet Moment at the Fountain</text>
  <text x="130" y="225" fill="#9e9585" font-size="27" font-family="Georgia, serif">AQ-inspired fantasy adventure + relationship storytelling concept art</text>

  <g transform="translate(220,260)">
    <rect x="0" y="0" width="500" height="360" rx="18" fill="#1a1f2e" fill-opacity="0.85" stroke="#d4a438" stroke-opacity="0.35"/>
    <text x="24" y="48" fill="#d4a438" font-size="34" font-family="Georgia, serif">Character Beat</text>
    <text x="24" y="95" fill="#e8e2d6" font-size="24" font-family="Georgia, serif">Mira: “You fight like thunder,</text>
    <text x="24" y="130" fill="#e8e2d6" font-size="24" font-family="Georgia, serif">but talk like rain.”</text>
    <text x="24" y="190" fill="#9e9585" font-size="22" font-family="Georgia, serif">+ Affinity</text>
    <text x="24" y="225" fill="#9e9585" font-size="22" font-family="Georgia, serif">Unlock: Evening Walk Event</text>
    <rect x="24" y="265" width="200" height="58" rx="8" fill="#4a5f8f"/>
    <text x="124" y="302" text-anchor="middle" fill="#e8e2d6" font-size="24" font-family="Georgia, serif">Respond</text>
  </g>

  <g transform="translate(1260,220)">
    <ellipse cx="120" cy="330" rx="130" ry="80" fill="#000" opacity="0.25"/>
    <path d="M65 118 C70 70 95 38 120 34 C150 38 170 72 176 116 L176 248 L65 248 Z" fill="#334a73"/>
    <circle cx="120" cy="88" r="45" fill="#f0d8bc"/>
    <path d="M80 84 C82 56 98 40 120 40 C140 40 158 56 160 84" fill="#2a1e1a"/>
    <rect x="95" y="140" width="50" height="22" rx="7" fill="#d4a438"/>
    <path d="M62 250 L178 250 L220 380 L20 380 Z" fill="#273652"/>
    <rect x="86" y="194" width="68" height="9" rx="4" fill="#eab94f" opacity="0.8"/>
    <text x="120" y="424" text-anchor="middle" fill="#e8e2d6" font-size="26" font-family="Georgia, serif">Mira</text>
  </g>

  <rect x="0" y="910" width="1920" height="170" fill="#101624" stroke="#d4a438" stroke-opacity="0.25"/>
  <text x="100" y="980" fill="#e8e2d6" font-size="30" font-family="Georgia, serif">Direction: cozy frontier fantasy, emotional beats between quests, warm gold UI accents.</text>
  <text x="100" y="1025" fill="#9e9585" font-size="24" font-family="Georgia, serif">Use as key art placeholder or style target for polished illustration passes.</text>
</svg>
